<svg xmlns="http://www.w3.org/2000/svg" viewBox="0 0 24 24" fill="#00A1E0"><path d="M10.006 5.415a4.195 4.195 0 0 1 3.045-1.306c1.56 0 2.954.652 3.957 1.695a4.195 4.195 0 0 1 1.306 3.045c0 1.56-.652 2.954-1.695 3.957a4.195 4.195 0 0 1-3.045 1.306 4.195 4.195 0 0 1-3.045-1.306 4.195 4.195 0 0 1-1.306-3.045 4.195 4.195 0 0 1 1.306-3.045 4.195 4.195 0 0 1 3.045-1.306zM4.195 20.652c1.56 0 2.954-.652 3.957-1.695a4.195 4.195 0 0 0 1.306-3.045 4.195 4.195 0 0 0-1.306-3.045 4.195 4.195 0 0 0-3.045-1.306 4.195 4.195 0 0 0-3.045 1.306 4.195 4.195 0 0 0-1.306 3.045c0 1.56.652 2.954 1.695 3.957a4.195 4.195 0 0 0 3.045 1.306zm15.61 0c1.56 0 2.954-.652 3.957-1.695a4.195 4.195 0 0 0 1.306-3.045 4.195 4.195 0 0 0-1.306-3.045 4.195 4.195 0 0 0-3.045-1.306 4.195 4.195 0 0 0-3.045 1.306 4.195 4.195 0 0 0-1.306 3.045c0 1.56.652 2.954 1.695 3.957a4.195 4.195 0 0 0 3.045 1.306z"/></svg>
