<svg xmlns="http://www.w3.org/2000/svg" viewBox="0 0 24 24" fill="#0FAAFF"><path d="M12.823 0H1.176C.526 0 0 .526 0 1.176v11.647c0 .65.526 1.176 1.176 1.176h11.647c.65 0 1.176-.526 1.176-1.176V1.176C14 .526 13.474 0 12.823 0zM7.06 15.882H3.765V8.47h3.294v7.412zm0-8.47H3.765V3.765h3.294V7.41zm7.412 8.47h-3.294V8.47h3.294v7.412zm0-8.47h-3.294V3.765h3.294V7.41zM24 12.823c0 6.176-5.001 11.177-11.177 11.177S1.647 18.999 1.647 12.823h1.176c0 5.53 4.47 10 10 10s10-4.47 10-10-4.47-10-10-10V1.647C18.999 1.647 24 6.648 24 12.823z"/></svg>
