<svg xmlns="http://www.w3.org/2000/svg" viewBox="0 0 24 24" fill="#F22F46"><path d="M12 0C5.373 0 0 5.373 0 12s5.373 12 12 12 12-5.373 12-12S18.627 0 12 0zm0 21.75c-5.385 0-9.75-4.365-9.75-9.75S6.615 2.25 12 2.25s9.75 4.365 9.75 9.75-4.365 9.75-9.75 9.75zm-4.5-5.25c.621 0 1.125-.504 1.125-1.125s-.504-1.125-1.125-1.125-1.125.504-1.125 1.125.504 1.125 1.125 1.125zm4.5 0c.621 0 1.125-.504 1.125-1.125s-.504-1.125-1.125-1.125-1.125.504-1.125 1.125.504 1.125 1.125 1.125zm4.5 0c.621 0 1.125-.504 1.125-1.125s-.504-1.125-1.125-1.125-1.125.504-1.125 1.125.504 1.125 1.125 1.125z"/></svg>
